<svg width="58" height="42" viewBox="0 0 58 42" fill="none" xmlns="http://www.w3.org/2000/svg">
<path d="M54.1564 17.0664L25.7887 0.922686C21.9534 -1.24294 18.9116 0.528936 18.9116 4.92581V24.4821C18.9116 24.5477 18.9116 24.6133 18.9777 24.6789H19.0439C19.3745 23.3664 19.639 22.1852 19.9696 20.8727L21.2921 15.4914H24.2016L20.6309 27.3039H18.9116V37.0821C18.9116 41.4789 22.0195 43.2508 25.7887 41.0852L54.1564 24.9414C57.9917 22.7758 57.9917 19.2321 54.1564 17.0664ZM33.1286 27.3039H25.3919V15.4914H32.9302V17.8539H28.2353V20.0196H32.2028V22.3821H28.2353V24.9414H33.0624V27.3039H33.1286Z" fill="white"/>
<path d="M2.84339 15.4915H0V27.304H7.47216V24.9415H2.84339V15.4915Z" fill="white"/>
<path d="M12.3654 15.4915H9.52197V27.304H12.3654V15.4915Z" fill="white"/>
<path d="M17.9861 20.8727L16.5974 15.4915H13.5557L17.1264 27.304H18.8457V24.4821C18.5812 23.2352 18.3167 22.054 17.9861 20.8727Z" fill="white"/>
</svg>
